<?xml version="1.0" encoding="utf-8"?>
<!-- Generator: Adobe Illustrator 27.5.0, SVG Export Plug-In . SVG Version: 6.00 Build 0)  -->
<svg version="1.1" id="Layer_1" xmlns="http://www.w3.org/2000/svg" xmlns:xlink="http://www.w3.org/1999/xlink" x="0px" y="0px"
	 viewBox="0 0 100 100" style="enable-background:new 0 0 100 100;" xml:space="preserve">
<style type="text/css">
	.st0{fill:white;}
	.st1{fill-rule:evenodd;clip-rule:evenodd;fill:white;}
</style>
<path class="st0" d="M33.3,48.4c-2.3,0-4.2,1.9-4.2,4.2c0,2.3,1.9,4.2,4.2,4.2h33.3c2.3,0,4.2-1.9,4.2-4.2c0-2.3-1.9-4.2-4.2-4.2
	H33.3z"/>
<path class="st0" d="M33.3,37c-2.3,0-4.2,1.9-4.2,4.2c0,2.3,1.9,4.2,4.2,4.2h33.3c2.3,0,4.2-1.9,4.2-4.2c0-2.3-1.9-4.2-4.2-4.2H33.3
	z"/>
<path class="st0" d="M29.2,70.8c0-2.3,1.9-4.2,4.2-4.2H50c2.3,0,4.2,1.9,4.2,4.2S52.3,75,50,75H33.3C31,75,29.2,73.1,29.2,70.8z"/>
<path class="st1" d="M29.2,8.3c2.3,0,4.2,1.9,4.2,4.2v4.2h33.3v-4.2c0-2.3,1.9-4.2,4.2-4.2s4.2,1.9,4.2,4.2v4.6
	c9.5,1.9,16.7,10.3,16.7,20.4v4.2v29.2c0,11.5-9.3,20.8-20.8,20.8H29.2c-11.5,0-20.8-9.3-20.8-20.8V37.5C8.3,27.4,15.5,19,25,17.1
	v-4.6C25,10.2,26.9,8.3,29.2,8.3z M75.8,27.5H24.2c-4.2,0-7.6,3.7-7.6,8.3v30.8c0,9.3,5.6,16.8,12.5,16.8h41.7
	c6.9,0,12.5-7.5,12.5-16.8V35.8C83.3,31.2,79.9,27.5,75.8,27.5z"/>
</svg>
