<svg width="100%" height="100%" viewBox="0 0 1440 1021" fill="none" xmlns="http://www.w3.org/2000/svg">
<rect width="100%" height="100%" fill="#D9D9D9"/>
<path d="M0 619.627L34.3 632.904C68.7 646.081 137.3 672.636 205.8 657.648C274.3 642.762 342.7 586.434 411.2 578.387C479.7 570.34 548.3 610.574 617 626.869C685.7 643.064 754.3 635.419 823 646.282C891.7 657.146 960.3 686.718 1028.8 667.606C1097.3 648.495 1165.7 580.7 1234.2 572.653C1302.7 564.606 1371.3 616.308 1405.7 642.058L1440 667.908V1019.96H1405.7C1371.3 1019.96 1302.7 1019.96 1234.2 1019.96C1165.7 1019.96 1097.3 1019.96 1028.8 1019.96C960.3 1019.96 891.7 1019.96 823 1019.96C754.3 1019.96 685.7 1019.96 617 1019.96C548.3 1019.96 479.7 1019.96 411.2 1019.96C342.7 1019.96 274.3 1019.96 205.8 1019.96C137.3 1019.96 68.7 1019.96 34.3 1019.96H0V619.627Z" fill="#BA7E14"/>
<path d="M0 781.57L34.3 757.933C68.7 734.295 137.3 687.02 205.8 663.181C274.3 639.442 342.7 639.04 411.2 638.235C479.7 637.431 548.3 636.022 617 642.46C685.7 648.797 754.3 662.879 823 661.37C891.7 659.861 960.3 642.762 1028.8 634.514C1097.3 626.366 1165.7 626.97 1234.2 636.525C1302.7 646.081 1371.3 664.589 1405.7 673.742L1440 682.996V1019.96H1405.7C1371.3 1019.96 1302.7 1019.96 1234.2 1019.96C1165.7 1019.96 1097.3 1019.96 1028.8 1019.96C960.3 1019.96 891.7 1019.96 823 1019.96C754.3 1019.96 685.7 1019.96 617 1019.96C548.3 1019.96 479.7 1019.96 411.2 1019.96C342.7 1019.96 274.3 1019.96 205.8 1019.96C137.3 1019.96 68.7 1019.96 34.3 1019.96H0V781.57Z" fill="#CC9033"/>
<path d="M0 829.852L34.3 828.544C68.7 827.136 137.3 824.521 205.8 821.302C274.3 818.083 342.7 814.462 411.2 791.931C479.7 769.5 548.3 728.26 617 722.023C685.7 715.888 754.3 744.655 823 749.081C891.7 753.406 960.3 733.289 1028.8 732.082C1097.3 730.976 1165.7 748.679 1234.2 771.009C1302.7 793.339 1371.3 820.095 1405.7 833.573L1440 846.951V1019.96H1405.7C1371.3 1019.96 1302.7 1019.96 1234.2 1019.96C1165.7 1019.96 1097.3 1019.96 1028.8 1019.96C960.3 1019.96 891.7 1019.96 823 1019.96C754.3 1019.96 685.7 1019.96 617 1019.96C548.3 1019.96 479.7 1019.96 411.2 1019.96C342.7 1019.96 274.3 1019.96 205.8 1019.96C137.3 1019.96 68.7 1019.96 34.3 1019.96H0V829.852Z" fill="#DDA34D"/>
<path d="M0 830.857L34.3 824.521C68.7 818.083 137.3 805.409 205.8 795.854C274.3 786.298 342.7 779.86 411.2 794.948C479.7 810.036 548.3 846.649 617 865.861C685.7 885.174 754.3 887.186 823 885.979C891.7 884.872 960.3 880.446 1028.8 868.879C1097.3 857.312 1165.7 838.603 1234.2 829.148C1302.7 819.793 1371.3 819.793 1405.7 819.793H1440V1019.96H1405.7C1371.3 1019.96 1302.7 1019.96 1234.2 1019.96C1165.7 1019.96 1097.3 1019.96 1028.8 1019.96C960.3 1019.96 891.7 1019.96 823 1019.96C754.3 1019.96 685.7 1019.96 617 1019.96C548.3 1019.96 479.7 1019.96 411.2 1019.96C342.7 1019.96 274.3 1019.96 205.8 1019.96C137.3 1019.96 68.7 1019.96 34.3 1019.96H0V830.857Z" fill="#EEB666"/>
<path d="M0 924.402L34.3 927.118C68.7 929.733 137.3 935.165 205.8 936.774C274.3 938.484 342.7 936.473 411.2 924.201C479.7 912.03 548.3 889.499 617 896.037C685.7 902.575 754.3 938.183 823 951.259C891.7 964.335 960.3 954.88 1028.8 935.266C1097.3 915.651 1165.7 885.878 1234.2 883.464C1302.7 881.15 1371.3 906.297 1405.7 918.87L1440 931.443V1019.96H1405.7C1371.3 1019.96 1302.7 1019.96 1234.2 1019.96C1165.7 1019.96 1097.3 1019.96 1028.8 1019.96C960.3 1019.96 891.7 1019.96 823 1019.96C754.3 1019.96 685.7 1019.96 617 1019.96C548.3 1019.96 479.7 1019.96 411.2 1019.96C342.7 1019.96 274.3 1019.96 205.8 1019.96C137.3 1019.96 68.7 1019.96 34.3 1019.96H0V924.402Z" fill="#FFC97F"/>
<path d="M0 627.674L34.3 640.951C68.7 654.128 137.3 680.683 205.8 665.695C274.3 650.809 342.7 594.481 411.2 586.434C479.7 578.387 548.3 618.621 617 634.916C685.7 651.11 754.3 643.466 823 654.329C891.7 665.192 960.3 694.765 1028.8 675.653C1097.3 656.542 1165.7 588.747 1234.2 580.7C1302.7 572.653 1371.3 624.355 1405.7 650.105L1440 675.955V1028.01H1405.7C1371.3 1028.01 1302.7 1028.01 1234.2 1028.01C1165.7 1028.01 1097.3 1028.01 1028.8 1028.01C960.3 1028.01 891.7 1028.01 823 1028.01C754.3 1028.01 685.7 1028.01 617 1028.01C548.3 1028.01 479.7 1028.01 411.2 1028.01C342.7 1028.01 274.3 1028.01 205.8 1028.01C137.3 1028.01 68.7 1028.01 34.3 1028.01H0V627.674Z" fill="#BA7E14"/>
<path d="M0 789.617L34.3 765.979C68.7 742.342 137.3 695.066 205.8 671.228C274.3 647.489 342.7 647.087 411.2 646.282C479.7 645.478 548.3 644.069 617 650.507C685.7 656.844 754.3 670.926 823 669.417C891.7 667.908 960.3 650.809 1028.8 642.561C1097.3 634.413 1165.7 635.017 1234.2 644.572C1302.7 654.128 1371.3 672.636 1405.7 681.789L1440 691.043V1028.01H1405.7C1371.3 1028.01 1302.7 1028.01 1234.2 1028.01C1165.7 1028.01 1097.3 1028.01 1028.8 1028.01C960.3 1028.01 891.7 1028.01 823 1028.01C754.3 1028.01 685.7 1028.01 617 1028.01C548.3 1028.01 479.7 1028.01 411.2 1028.01C342.7 1028.01 274.3 1028.01 205.8 1028.01C137.3 1028.01 68.7 1028.01 34.3 1028.01H0V789.617Z" fill="#AF4840"/>
<path d="M0 837.898L34.3 836.591C68.7 835.183 137.3 832.567 205.8 829.349C274.3 826.13 342.7 822.509 411.2 799.978C479.7 777.547 548.3 736.307 617 730.07C685.7 723.935 754.3 752.702 823 757.128C891.7 761.453 960.3 741.336 1028.8 740.129C1097.3 739.022 1165.7 756.726 1234.2 779.056C1302.7 801.386 1371.3 828.142 1405.7 841.62L1440 854.998V1028.01H1405.7C1371.3 1028.01 1302.7 1028.01 1234.2 1028.01C1165.7 1028.01 1097.3 1028.01 1028.8 1028.01C960.3 1028.01 891.7 1028.01 823 1028.01C754.3 1028.01 685.7 1028.01 617 1028.01C548.3 1028.01 479.7 1028.01 411.2 1028.01C342.7 1028.01 274.3 1028.01 205.8 1028.01C137.3 1028.01 68.7 1028.01 34.3 1028.01H0V837.898Z" fill="#BA7E14" fill-opacity="0.51"/>
<path d="M0 838.904L34.3 832.567C68.7 826.13 137.3 813.456 205.8 803.9C274.3 794.345 342.7 787.907 411.2 802.995C479.7 818.083 548.3 854.696 617 873.908C685.7 893.221 754.3 895.232 823 894.025C891.7 892.919 960.3 888.493 1028.8 876.926C1097.3 865.358 1165.7 846.649 1234.2 837.194C1302.7 827.84 1371.3 827.84 1405.7 827.84H1440V1028.01H1405.7C1371.3 1028.01 1302.7 1028.01 1234.2 1028.01C1165.7 1028.01 1097.3 1028.01 1028.8 1028.01C960.3 1028.01 891.7 1028.01 823 1028.01C754.3 1028.01 685.7 1028.01 617 1028.01C548.3 1028.01 479.7 1028.01 411.2 1028.01C342.7 1028.01 274.3 1028.01 205.8 1028.01C137.3 1028.01 68.7 1028.01 34.3 1028.01H0V838.904Z" fill="#322648"/>
<path d="M0 932.449L34.3 935.165C68.7 937.78 137.3 943.212 205.8 944.821C274.3 946.531 342.7 944.52 411.2 932.248C479.7 920.077 548.3 897.546 617 904.084C685.7 910.622 754.3 946.23 823 959.306C891.7 972.382 960.3 962.927 1028.8 943.313C1097.3 923.698 1165.7 893.925 1234.2 891.511C1302.7 889.197 1371.3 914.344 1405.7 926.917L1440 939.49V1028.01H1405.7C1371.3 1028.01 1302.7 1028.01 1234.2 1028.01C1165.7 1028.01 1097.3 1028.01 1028.8 1028.01C960.3 1028.01 891.7 1028.01 823 1028.01C754.3 1028.01 685.7 1028.01 617 1028.01C548.3 1028.01 479.7 1028.01 411.2 1028.01C342.7 1028.01 274.3 1028.01 205.8 1028.01C137.3 1028.01 68.7 1028.01 34.3 1028.01H0V932.449Z" fill="#001220"/>
</svg>
