<svg id="visual" viewBox="0 0 960 540" width="100%" height="100%" xmlns="http://www.w3.org/2000/svg" xmlns:xlink="http://www.w3.org/1999/xlink" version="1.1"><rect x="0" y="0" width="960" height="540" fill="#001220"></rect><path d="M0 369L240 359L480 299L720 358L960 308L960 541L720 541L480 541L240 541L0 541Z" fill="#871400"></path><path d="M0 379L240 359L480 352L720 355L960 385L960 541L720 541L480 541L240 541L0 541Z" fill="#a32d04"></path><path d="M0 394L240 397L480 434L720 410L960 412L960 541L720 541L480 541L240 541L0 541Z" fill="#be4407"></path><path d="M0 466L240 446L480 465L720 430L960 447L960 541L720 541L480 541L240 541L0 541Z" fill="#da5b09"></path><path d="M0 506L240 493L480 488L720 486L960 514L960 541L720 541L480 541L240 541L0 541Z" fill="#f5730a"></path></svg>