<?xml version="1.0" encoding="UTF-8"?><svg id="b" xmlns="http://www.w3.org/2000/svg" viewBox="0 0 115.52 27.17"><defs><style>.f{opacity:.85;}.g{fill:#213546;}</style></defs><g id="c"><g id="d" class="f"><path class="g" d="m10.95,5.09c-.28-.52-.68-.91-1.21-1.18-.52-.27-1.14-.41-1.85-.41-1.22,0-2.21.4-2.94,1.21-.74.8-1.11,1.88-1.11,3.22,0,1.43.39,2.55,1.16,3.35.77.8,1.84,1.21,3.2,1.21.93,0,1.71-.24,2.36-.71.64-.47,1.11-1.15,1.4-2.04h-4.8v-2.79h8.23v3.52c-.28.94-.76,1.82-1.43,2.63-.67.81-1.52,1.47-2.56,1.97-1.03.5-2.2.75-3.5.75-1.53,0-2.9-.34-4.1-1.01-1.2-.67-2.14-1.6-2.81-2.8-.67-1.19-1.01-2.56-1.01-4.09s.34-2.9,1.01-4.1c.67-1.2,1.6-2.14,2.8-2.81,1.19-.67,2.56-1.01,4.09-1.01,1.86,0,3.42.45,4.7,1.35,1.28.9,2.12,2.15,2.53,3.74h-4.18Z"/><path class="g" d="m27.36.18h-4.38l-5.62,15.53h3.96l3.83-11.35,3.83,11.35h4.01L27.36.18Z"/><path class="g" d="m39.29.18v9.29c0,.93.23,1.64.69,2.15.46.5,1.13.75,2.01.75s1.56-.25,2.04-.75c.47-.5.71-1.22.71-2.15V.18h3.78v9.27c0,1.39-.3,2.56-.88,3.52-.59.96-1.38,1.68-2.38,2.17-1,.49-2.11.73-3.33.73s-2.32-.24-3.29-.72c-.97-.48-1.73-1.2-2.29-2.17-.56-.97-.84-2.14-.84-3.53V.18h3.78Z"/><path class="g" d="m63.23.18v3.03h-4.11v12.5h-3.78V3.21h-4.11V.18h12.01Z"/><path class="g" d="m79.46.18v15.53h-3.78v-6.39h-5.88v6.39h-3.78V.18h3.78v6.08h5.88V.18h3.78Z"/><path class="g" d="m86.85.18v15.53h-3.78V.18h3.78Z"/><path class="g" d="m94.26,9.27h5.06v-2.92h-8.85v9.36h9.52v-3.03h-5.73v-3.41ZM90.48.18v3.03h9.52V.18h-9.52Z"/><path class="g" d="m111.94,9.55c1.13-.34,1.99-.91,2.57-1.72.59-.81.88-1.73.88-2.76,0-.91-.21-1.74-.64-2.49-.43-.74-1.07-1.33-1.94-1.76-.86-.43-1.91-.64-3.13-.64h-6.35v3.14h6.13c.7,0,1.22.17,1.56.51.34.34.52.8.52,1.39,0,.62-.18,1.1-.52,1.44s-.87.51-1.56.51h-6.13v8.54h3.78v-5.86h.9l3.23,5.86h4.27l-3.58-6.15Z"/></g><g id="e"><path class="g" d="m25.38,26.9c-.42-.18-.76-.44-1-.78-.25-.34-.37-.74-.38-1.2h1.63c.02.31.13.56.33.74.2.18.47.27.82.27s.63-.08.83-.25c.2-.17.3-.39.3-.67,0-.22-.07-.41-.21-.55s-.31-.26-.52-.34c-.21-.08-.49-.18-.85-.28-.49-.14-.89-.29-1.2-.43-.31-.14-.57-.35-.79-.64-.22-.29-.33-.67-.33-1.14,0-.45.11-.84.34-1.17.22-.33.54-.59.94-.76.4-.18.87-.27,1.39-.27.78,0,1.41.19,1.9.57.49.38.76.91.81,1.59h-1.67c-.01-.26-.12-.48-.33-.65-.21-.17-.48-.25-.82-.25-.3,0-.53.08-.71.23-.18.15-.27.37-.27.66,0,.2.07.37.2.5.13.13.3.24.5.33.2.08.48.18.84.29.49.14.89.29,1.2.43.31.14.58.36.8.65.22.29.34.67.34,1.14,0,.4-.1.78-.31,1.13-.21.35-.52.62-.92.83-.4.21-.89.31-1.44.31-.53,0-1-.09-1.43-.27Z"/><path class="g" d="m39.42,19.53v1.22h-2.02v6.34h-1.52v-6.34h-2.02v-1.22h5.55Z"/><path class="g" d="m45.49,19.53v4.68c0,.51.13.91.4,1.18.27.27.64.41,1.13.41s.87-.14,1.14-.41c.27-.27.4-.66.4-1.18v-4.68h1.53v4.67c0,.64-.14,1.19-.42,1.63-.28.44-.65.78-1.12,1-.47.22-.98.34-1.56.34s-1.08-.11-1.53-.34c-.46-.22-.82-.56-1.09-1-.27-.44-.4-.99-.4-1.63v-4.67h1.52Z"/><path class="g" d="m59.76,20c.6.31,1.07.75,1.4,1.33.33.57.49,1.24.49,2s-.16,1.42-.49,1.99c-.33.57-.79,1.01-1.4,1.32-.6.31-1.3.47-2.1.47h-2.65v-7.57h2.65c.79,0,1.49.16,2.1.47Zm-.31,5.16c.43-.43.65-1.04.65-1.83s-.22-1.4-.65-1.85c-.43-.44-1.05-.67-1.84-.67h-1.07v5h1.07c.79,0,1.41-.22,1.84-.65Z"/><path class="g" d="m67.78,19.53v7.57h-1.52v-7.57h1.52Z"/><path class="g" d="m74.3,26.67c-.59-.33-1.06-.79-1.41-1.38s-.52-1.26-.52-2,.17-1.4.52-1.99.82-1.05,1.41-1.38c.59-.33,1.24-.5,1.95-.5s1.37.17,1.96.5,1.05.79,1.4,1.38c.34.59.52,1.25.52,1.99s-.17,1.41-.52,2c-.34.59-.81,1.05-1.4,1.38-.59.33-1.24.5-1.95.5s-1.36-.17-1.95-.5Zm3.15-1.17c.35-.21.62-.5.81-.88.2-.38.29-.83.29-1.33s-.1-.95-.29-1.33c-.2-.38-.47-.67-.81-.87-.35-.2-.75-.3-1.2-.3s-.86.1-1.21.3c-.35.2-.62.49-.82.87-.19.38-.29.82-.29,1.33s.1.95.29,1.33c.2.38.47.68.82.88.35.21.75.31,1.21.31s.86-.1,1.2-.31Z"/><path class="g" d="m85.91,26.9c-.42-.18-.76-.44-1-.78-.25-.34-.37-.74-.38-1.2h1.63c.02.31.13.56.33.74.2.18.47.27.82.27s.63-.08.83-.25c.2-.17.3-.39.3-.67,0-.22-.07-.41-.21-.55-.14-.14-.31-.26-.52-.34-.21-.08-.49-.18-.85-.28-.49-.14-.89-.29-1.2-.43-.31-.14-.57-.35-.79-.64-.22-.29-.33-.67-.33-1.14,0-.45.11-.84.34-1.17.22-.33.54-.59.94-.76.4-.18.87-.27,1.39-.27.78,0,1.42.19,1.9.57.49.38.76.91.81,1.59h-1.67c-.01-.26-.12-.48-.33-.65-.21-.17-.48-.25-.82-.25-.3,0-.53.08-.71.23-.18.15-.27.37-.27.66,0,.2.07.37.2.5.13.13.3.24.5.33.2.08.48.18.84.29.49.14.89.29,1.2.43.31.14.58.36.8.65.22.29.34.67.34,1.14,0,.4-.11.78-.31,1.13-.21.35-.52.62-.92.83-.4.21-.89.31-1.44.31-.53,0-1-.09-1.43-.27Z"/></g></g></svg>