<svg width="415" height="583" viewBox="0 0 415 583" fill="none" xmlns="http://www.w3.org/2000/svg">
<g clip-path="url(#clip0_10_617)">
<path d="M174.647 579.194L154.815 579.742C151.802 579.896 148.822 579.061 146.329 577.363C144.175 575.761 143.187 573.595 143.621 571.42L147.523 551.807C148.259 548.107 152.793 545.31 158.303 545.158L169.256 544.856C174.766 544.703 179.447 547.246 180.386 550.9L185.365 570.267C185.918 572.415 185.051 574.632 182.989 576.35C180.593 578.184 177.664 579.182 174.647 579.194Z" fill="#3F3D56"/>
<path d="M295.277 578.633L275.445 579.181C272.433 579.336 269.452 578.5 266.96 576.802C264.806 575.2 263.818 573.035 264.251 570.86L268.154 551.247C268.889 547.547 273.423 544.75 278.934 544.597L289.886 544.295C295.396 544.143 300.078 546.686 301.017 550.339L305.996 569.707C306.548 571.855 305.681 574.071 303.619 575.79C301.224 577.623 298.294 578.622 295.277 578.633Z" fill="#3F3D56"/>
<path d="M105.782 412.129C104.876 411.739 104.13 411.051 103.668 410.179C103.207 409.307 103.056 408.304 103.242 407.335C103.428 406.366 103.939 405.489 104.691 404.851C105.443 404.212 106.391 403.849 107.377 403.822L332.845 397.596C333.413 397.58 333.979 397.676 334.51 397.879C335.041 398.082 335.527 398.388 335.94 398.778C336.354 399.169 336.686 399.638 336.918 400.157C337.15 400.676 337.278 401.235 337.293 401.804C337.324 402.952 336.898 404.065 336.108 404.899C335.319 405.733 334.232 406.22 333.084 406.253L107.616 412.478C106.986 412.497 106.36 412.378 105.782 412.129Z" fill="#3F3D56"/>
<path d="M188.991 337.488L124.542 339.268L130.551 556.866L195 555.086L188.991 337.488Z" fill="#E6E6E6"/>
<path d="M190.626 333.579L178.237 367.328L178.248 521.087L193.344 525.416L190.626 333.579Z" fill="#CCCCCC"/>
<path d="M156.431 280.622C144.373 280.964 135.174 301.831 135.395 309.974L135.802 324.715L179.461 323.51L179.054 308.768C178.825 300.626 168.488 280.299 156.431 280.622Z" fill="#3F3D56"/>
<path d="M125.378 429.381C123.125 429.44 120.941 428.604 119.304 427.055C117.667 425.506 116.711 423.371 116.647 421.119L115.984 397.128C115.922 394.874 116.757 392.688 118.307 391.051C119.856 389.413 121.993 388.459 124.246 388.396C126.5 388.334 128.686 389.17 130.323 390.719C131.961 392.269 132.915 394.405 132.978 396.658L133.64 420.649C133.7 422.902 132.863 425.086 131.314 426.723C129.766 428.36 127.631 429.316 125.378 429.381Z" fill="#3F3D56"/>
<path d="M141.733 339.784L141.428 323.929L145.586 323.826L145.891 339.63L149.66 569.976L145.501 570.091" fill="#3F3D56"/>
<path d="M196.381 376.861L121.643 378.925C114.504 370.22 113.856 333.132 128.754 326.074L134.596 316.153L179.638 313.955L184.903 324.4C192.313 330.706 196.134 367.561 196.381 376.861Z" fill="#E6E6E6"/>
<path d="M168.251 359.073L149.351 359.595C145.704 359.696 142.603 354.964 142.44 349.049C142.276 343.134 145.111 338.238 148.758 338.137L167.658 337.615C171.306 337.515 174.406 342.246 174.57 348.162C174.733 354.077 171.898 358.973 168.251 359.073Z" fill="#6C63FF"/>
<path d="M131.651 466.068L92.692 493.588L85.886 555.638L131.334 540.453L131.651 466.068Z" fill="#E6E6E6"/>
<path d="M313.402 334.824L248.952 336.604L254.961 554.201L319.41 552.421L313.402 334.824Z" fill="#E6E6E6"/>
<path d="M250.496 334.306L263.757 367.722L267.736 521.43L252.757 526.149L250.496 334.306Z" fill="#CCCCCC"/>
<path d="M345.632 274.411C350.297 274.411 354.079 269.34 354.079 263.084C354.079 256.828 350.297 251.756 345.632 251.756C340.967 251.756 337.185 256.828 337.185 263.084C337.185 269.34 340.967 274.411 345.632 274.411Z" fill="#E83E2D"/>
<path d="M279.583 277.992C267.526 278.334 258.326 299.201 258.547 307.343L258.954 322.085L302.614 320.879L302.207 306.138C301.978 297.995 291.641 277.668 279.583 277.992Z" fill="#3F3D56"/>
<path d="M292.067 344.747L291.762 328.892L295.92 328.788L296.225 344.593L299.994 574.939L295.835 575.054" fill="#3F3D56"/>
<path d="M319.534 374.231L244.795 376.294C243.492 368.418 245.178 331.661 251.906 323.443L257.749 313.523L302.791 311.324L308.055 321.769C321.354 322.853 326.006 358.972 319.534 374.231Z" fill="#E6E6E6"/>
<path d="M291.495 359.754L272.595 360.276C268.948 360.377 265.826 354.902 265.638 348.074C265.449 341.246 268.264 335.608 271.911 335.507L290.811 334.985C294.458 334.885 297.579 340.359 297.768 347.187C297.956 354.015 295.142 359.653 291.495 359.754Z" fill="#6C63FF"/>
<path d="M316.586 450.162L354.249 479.43L358.215 541.727L313.509 524.483L316.586 450.162Z" fill="#E6E6E6"/>
<path d="M306.068 161.621C265.655 161.621 219.211 116.775 178.119 138.082C53.7042 202.596 70.8307 94.6422 35.0872 54.4933L36.2607 52.1396C63.3202 155.358 87.8037 319.832 178.659 135.344C201.419 89.1306 276.115 160.564 320.083 158.457L320.159 161.286C315.516 161.51 310.819 161.622 306.068 161.621Z" fill="#F2F2F2"/>
<path d="M403.065 167.967C370.85 192.367 306.749 184.658 286.857 226.454C226.629 352.999 175.103 256.602 122.369 246.177L121.884 243.593C174.674 247.971 231.298 241.178 285.635 223.945C334.739 208.374 378.549 185.21 412.327 156.983L414.096 159.193C410.53 162.175 406.853 165.099 403.065 167.967Z" fill="#F2F2F2"/>
<path d="M52.6321 162.411C57.2975 162.411 61.0795 157.34 61.0795 151.084C61.0795 144.828 57.2975 139.756 52.6321 139.756C47.9668 139.756 44.1848 144.828 44.1848 151.084C44.1848 157.34 47.9668 162.411 52.6321 162.411Z" fill="#E6E6E6"/>
<path d="M314.632 70.411C319.297 70.411 323.079 65.3396 323.079 59.0836C323.079 52.8276 319.297 47.7561 314.632 47.7561C309.967 47.7561 306.185 52.8276 306.185 59.0836C306.185 65.3396 309.967 70.411 314.632 70.411Z" fill="#E83E2D"/>
<path d="M129.971 208.129C126.109 210.702 122.156 204.578 126.092 202.119C129.954 199.546 133.907 205.67 129.971 208.129Z" fill="#E6E6E6"/>
<path d="M272.971 7.12918C269.109 9.70237 265.156 3.57794 269.092 1.119C272.954 -1.45405 276.907 4.67039 272.971 7.12918Z" fill="#E83E2D"/>
<path d="M357.249 126.301L354.792 125.762L355.33 123.304L353.692 122.945L353.153 125.403L350.696 124.865L350.337 126.503L352.794 127.042L352.256 129.499L353.894 129.858L354.433 127.4L356.89 127.939L357.249 126.301Z" fill="#E6E6E6"/>
<path d="M132.035 43.9396C137.946 43.9396 142.737 39.148 142.737 33.2372C142.737 27.3265 137.946 22.5349 132.035 22.5349C126.124 22.5349 121.333 27.3265 121.333 33.2372C121.333 39.148 126.124 43.9396 132.035 43.9396Z" fill="#E83E2D"/>
<path d="M210.316 19.6906C198.258 20.033 189.059 40.8997 189.28 49.0425L189.687 63.7841L233.346 62.5785L232.939 47.8369C232.711 39.6943 222.374 19.3671 210.316 19.6906Z" fill="#3F3D56"/>
<path d="M236.313 577.909L216.481 578.457C213.468 578.612 210.488 577.776 207.995 576.078C205.841 574.476 204.853 572.31 205.286 570.135L209.189 550.523C209.924 546.823 214.458 544.025 219.969 543.873L230.921 543.571C236.432 543.419 241.113 545.961 242.052 549.615L247.031 568.983C247.583 571.13 246.716 573.347 244.654 575.066C242.259 576.899 239.329 577.898 236.313 577.909Z" fill="#3F3D56"/>
<path d="M245.156 113.536L180.707 115.316L192.853 555.164L257.302 553.384L245.156 113.536Z" fill="#E6E6E6"/>
<path d="M219.368 326.449L219.063 310.594L223.221 310.491L223.526 326.295L227.295 556.641L223.136 556.756" fill="#3F3D56"/>
<path d="M257.845 153.792L170.519 156.203C168.997 147 170.966 104.053 178.828 94.4508L180.982 82.9888L241.279 81.3237L244.433 92.4948C253.092 99.8628 257.557 142.926 257.845 153.792Z" fill="#E6E6E6"/>
<path d="M243.185 82.6762L180.962 84.3944C178.665 84.4577 176.769 83.2519 176.726 81.701C176.721 81.4776 176.753 81.2548 176.823 81.0425L186.488 51.2673C186.902 49.9923 188.549 49.0559 190.472 49.0028L231.737 47.8635C233.659 47.8104 235.356 48.6544 235.84 49.9046L247.133 79.101C247.711 80.5943 246.377 82.1483 244.153 82.5719C243.834 82.6325 243.51 82.6674 243.185 82.6762Z" fill="#E6E6E6"/>
<path d="M187.1 324.427C186.538 324.186 186.008 323.879 185.519 323.512C184.819 323.021 184.241 322.376 183.829 321.627C183.416 320.878 183.181 320.044 183.14 319.19L180.879 237.313C180.786 233.923 184.105 231.072 188.277 230.957L243.98 229.418C248.153 229.302 251.623 231.967 251.717 235.356L253.978 317.234C253.985 318.089 253.796 318.935 253.425 319.705C253.055 320.476 252.513 321.151 251.841 321.68C250.353 322.892 248.499 323.565 246.58 323.59L190.877 325.128C189.582 325.171 188.293 324.932 187.1 324.427Z" fill="#3F3D56"/>
<path d="M222.753 77.407L203.853 77.9289C200.205 78.0296 197.121 73.909 196.979 68.7447C196.836 63.5803 199.688 59.2958 203.335 59.1951L222.235 58.6732C225.882 58.5725 228.966 62.6931 229.109 67.8574C229.252 73.0217 226.4 77.3062 222.753 77.407Z" fill="#6C63FF"/>
<path d="M314.998 424.066C312.745 424.126 310.561 423.289 308.924 421.74C307.287 420.192 306.331 418.057 306.267 415.804L305.604 391.813C305.545 389.561 306.382 387.378 307.931 385.743C309.48 384.108 311.615 383.155 313.867 383.093C316.118 383.03 318.302 383.865 319.94 385.412C321.577 386.959 322.533 389.092 322.598 391.344L323.26 415.335C323.32 417.588 322.483 419.772 320.934 421.409C319.386 423.046 317.251 424.001 314.998 424.066Z" fill="#3F3D56"/>
</g>
<defs>
<clipPath id="clip0_10_617">
<rect width="414" height="582" fill="white" transform="translate(0.5 0.5)"/>
</clipPath>
</defs>
</svg>
