<svg width="525" height="494" viewBox="0 0 525 494" fill="none" xmlns="http://www.w3.org/2000/svg">
<g clip-path="url(#clip0_7_209)">
<path d="M407.321 104.9L415.551 108.798C412.175 104.087 409.267 96.7302 407.709 90.8758C405.073 96.3292 400.823 103.002 396.616 106.988L405.314 104.75C399.954 131.018 379.795 149.876 356.709 149.876L356.383 150.825C380.496 150.825 401.848 132.228 407.321 104.9Z" fill="#BA7E14"/>
<path d="M382.442 64.8757H434.442C436.647 64.8757 438.442 66.6702 438.442 68.8757C438.442 71.0813 436.647 72.8757 434.442 72.8757H382.442C380.236 72.8757 378.442 71.0813 378.442 68.8757C378.442 66.6702 380.236 64.8757 382.442 64.8757Z" fill="#BA7E14"/>
<path d="M264.923 154.721C271.123 149.598 278.792 148.645 282.052 152.591C285.311 156.537 282.927 163.888 276.724 169.012C274.274 171.093 271.362 172.557 268.231 173.281L241.686 194.656L231.921 181.986L259.126 162.259C260.428 159.32 262.416 156.735 264.923 154.721Z" fill="#FFB6B6"/>
<path d="M111.501 202.949C111.488 202.003 111.497 193.758 117.601 188.546C124.613 182.559 134.508 184.983 137.979 185.832C145.996 187.796 146.653 191.235 154.182 194.768C168.267 201.379 150.619 197.996 159 195.876C161.901 195.142 203.638 192.247 214.027 185.853C234.233 173.417 248 165.876 248 165.876L257 183.876C257 183.876 243.986 201.971 225.67 215.377C206.882 229.128 197.488 236.004 183.211 238.66C181.982 238.889 151.745 244.052 127.392 225.857C121.838 221.707 111.66 214.103 111.501 202.949Z" fill="#E6E6E6"/>
<path opacity="0.2" d="M284.2 183.467C298.08 183.467 309.333 172.214 309.333 158.334C309.333 144.453 298.08 133.201 284.2 133.201C270.319 133.201 259.067 144.453 259.067 158.334C259.067 172.214 270.319 183.467 284.2 183.467Z" fill="#BA7E14"/>
<path d="M308.346 194.653C322.226 194.653 333.479 183.401 333.479 169.52C333.479 155.639 322.226 144.387 308.346 144.387C294.465 144.387 283.213 155.639 283.213 169.52C283.213 183.401 294.465 194.653 308.346 194.653Z" fill="white"/>
<path opacity="0.5" d="M308.346 194.653C322.226 194.653 333.479 183.401 333.479 169.52C333.479 155.639 322.226 144.387 308.346 144.387C294.465 144.387 283.213 155.639 283.213 169.52C283.213 183.401 294.465 194.653 308.346 194.653Z" fill="#BA7E14"/>
<path d="M333.833 206.461C347.714 206.461 358.966 195.208 358.966 181.328C358.966 167.447 347.714 156.195 333.833 156.195C319.953 156.195 308.7 167.447 308.7 181.328C308.7 195.208 319.953 206.461 333.833 206.461Z" fill="white"/>
<path opacity="0.8" d="M333.833 206.461C347.714 206.461 358.966 195.208 358.966 181.328C358.966 167.447 347.714 156.195 333.833 156.195C319.953 156.195 308.7 167.447 308.7 181.328C308.7 195.208 319.953 206.461 333.833 206.461Z" fill="#BA7E14"/>
<path d="M356.638 217.026C370.518 217.026 381.77 205.773 381.77 191.893C381.77 178.012 370.518 166.76 356.638 166.76C342.757 166.76 331.505 178.012 331.505 191.893C331.505 205.773 342.757 217.026 356.638 217.026Z" fill="#BA7E14"/>
<path d="M139.42 157.171C156.735 157.171 170.772 143.134 170.772 125.818C170.772 108.503 156.735 94.466 139.42 94.466C122.104 94.466 108.067 108.503 108.067 125.818C108.067 143.134 122.104 157.171 139.42 157.171Z" fill="#FFB6B6"/>
<path d="M384.959 336.455L352.671 303.404L336.003 320.791L360.059 352.481L383.921 355.21L384.959 336.455Z" fill="#FFB6B6"/>
<path d="M200.59 274.477C202.479 274.634 208.48 275.836 214.217 272.68C218.131 270.526 220.139 267.324 220.817 266.305C229.23 253.67 261.521 233.967 290.501 232.754C297.064 232.48 301.384 233.24 305.31 235.287C310.877 238.189 313.1 242.346 320.165 252.084C324.029 257.411 328.306 262.43 332.217 267.722C355.114 298.709 363.795 301.142 362.908 311.076C361.923 322.098 350.036 332.555 342.135 331.348C338.9 330.854 337.647 328.604 333.324 324.049C320.649 310.695 315.405 313.162 306.381 302.933C295.845 290.991 297.224 281.089 291.727 280.706C286.63 280.352 284.463 288.799 273.581 300.021C268.601 305.155 265.055 307.511 254.252 315.006C212.182 344.191 211.511 346.242 203.021 348.57C199.306 349.588 172.941 356.817 163.55 345.314C148.853 327.313 183.573 273.063 200.59 274.477Z" fill="#2F2E41"/>
<path d="M375.088 343.924C377.463 342.858 380.239 341.611 381.133 338.744C381.737 336.804 381.389 334.412 380.14 332.759C378.698 330.851 376.564 330.6 376.65 330.263C376.782 329.749 381.828 329.95 387.367 331.908C388.412 332.277 393.147 334.007 399.171 338.71C403.997 342.478 403.347 343.233 406.374 345.405C415.663 352.074 424.376 346.818 429.403 353.072C431.343 355.486 432.17 358.913 431.354 361.683C429.714 367.248 421.741 369.163 417.384 370.151C406.889 372.532 398.946 370.589 390.652 369.191C362.444 364.438 346.596 368.767 344.475 362.232C344.073 360.995 344.725 361.1 346.9 352.024C349.047 343.066 348.976 340.606 350.805 339.889C353.557 338.809 355.404 343.721 362.337 345.402C368.48 346.891 373.549 344.615 375.088 343.924Z" fill="#2F2E41"/>
<path d="M327.555 444.578L319.398 399.099L295.843 404.126L297.953 443.856L316.165 459.513L327.555 444.578Z" fill="#FFB6B6"/>
<path d="M209.802 289.764C211.277 290.954 215.568 295.319 222.086 295.929C226.535 296.345 229.995 294.823 231.128 294.361C245.184 288.63 282.967 290.459 307.628 305.729C313.212 309.187 316.36 312.242 318.459 316.14C321.437 321.668 320.941 326.356 321.319 338.381C321.525 344.959 322.245 351.512 322.51 358.088C324.056 396.586 329.873 403.473 323.56 411.195C316.556 419.763 300.848 421.74 294.989 416.305C292.589 414.079 292.816 411.514 291.796 405.317C288.807 387.15 283.083 386.247 281.359 372.715C279.347 356.918 286.049 349.499 281.715 346.095C277.697 342.94 271.161 348.713 255.855 351.887C248.851 353.34 244.594 353.297 231.446 353.433C180.247 353.959 178.539 355.279 170.207 352.437C166.562 351.194 140.687 342.37 139.375 327.578C137.322 304.431 196.515 279.038 209.802 289.764Z" fill="#2F2E41"/>
<path d="M315.193 445.215C317.757 445.666 320.755 446.194 323.104 444.323C324.694 443.057 325.749 440.882 325.643 438.813C325.521 436.425 323.897 435.019 324.158 434.788C324.555 434.437 328.617 437.437 332.101 442.167C332.759 443.06 335.705 447.151 338.049 454.424C339.926 460.252 338.965 460.512 340.249 464.009C344.191 474.743 354.352 475.287 354.999 483.285C355.249 486.371 354.01 489.671 351.778 491.506C347.297 495.189 339.625 492.296 335.464 490.668C325.443 486.745 319.962 480.676 313.884 474.862C293.212 455.089 277.668 449.772 279.582 443.173C279.944 441.925 280.425 442.378 287.321 436.089C294.127 429.882 295.451 427.807 297.366 428.24C300.25 428.892 299.02 433.994 303.813 439.278C308.06 443.96 313.532 444.923 315.193 445.215Z" fill="#2F2E41"/>
<path d="M143.694 131.812C144.915 127.446 143.382 125.855 144.944 123.895C144.944 123.895 145.573 123.106 151.194 120.978C149.536 111.355 150.778 109.728 150.778 109.728C152.209 107.852 155.076 107.399 157.028 107.644C161.156 108.163 161.887 111.895 164.528 111.811C168.177 111.695 172.554 104.391 171.195 98.0603C170.087 92.8962 165.309 89.0611 164.112 89.7266C162.924 90.3864 158.649 87.4769 157.028 88.0598C155.921 88.4579 150.709 87.9283 149.528 88.4765C148.237 89.0752 144.542 92.8029 144.188 92.3332C141.733 89.0694 141.785 87.9299 140.361 87.2264C137.836 85.98 135.092 88.2838 130.36 90.5599C120.624 95.2431 117.773 92.4495 113.276 96.3936C111.004 98.3859 109.786 102.194 107.442 109.728C104.165 120.264 102.526 125.532 104.109 130.562C105.723 135.692 108.1 134.575 111.609 141.812C115.515 149.869 114.169 154.552 117.859 156.396C120.712 157.822 125.296 156.915 127.027 154.313C129.99 149.858 122.331 143.833 124.943 136.812C126.547 132.503 131.493 129.235 134.527 130.145C137.957 131.174 138.21 137.324 140.361 137.229C142.202 137.147 143.481 132.573 143.694 131.812Z" fill="#2F2E41"/>
<path d="M119.943 161.813C126.359 154.62 152.492 162.065 154.945 173.481C155.953 178.176 152.229 180.158 153.278 185.565C154.812 193.472 163.498 192.933 169.945 200.982C179.099 212.409 169.669 223.58 179.946 242.651C182.142 246.726 183.993 250.16 187.863 253.485C196.744 261.112 205.009 258.496 209.531 265.568C212.912 270.857 211.523 277.375 211.197 278.902C209.863 285.164 206.246 286.689 203.697 291.82C199.456 300.356 204.258 306.622 204.53 316.821C204.871 329.581 198.09 347.269 184.529 353.073C169.294 359.593 150.919 348.794 142.027 338.072C136.722 331.674 135.181 325.772 132.86 318.488C122.486 285.931 116.626 288.876 108.692 263.068C99.6232 233.566 97.8403 199.002 108.692 188.065C110.131 186.615 114.089 183.264 116.609 177.231C120.001 169.112 117.071 165.034 119.943 161.813Z" fill="#213546"/>
<path d="M323.709 189.636C325.286 199.993 318.143 209.702 307.786 211.28C297.429 212.857 287.719 205.714 286.142 195.357C284.565 184.999 291.708 175.29 302.065 173.713C312.422 172.135 322.132 179.279 323.709 189.636ZM288.119 195.056C289.53 204.323 298.218 210.714 307.485 209.302C316.752 207.891 323.143 199.204 321.732 189.937C320.32 180.67 311.633 174.279 302.366 175.69C293.099 177.101 286.708 185.788 288.119 195.056Z" fill="#3F3D56"/>
<path d="M295.195 193.978C296.012 199.343 301.042 203.043 306.407 202.226C311.772 201.409 315.472 196.38 314.655 191.014C313.838 185.649 308.809 181.949 303.444 182.766C298.078 183.583 294.378 188.613 295.195 193.978Z" fill="#3F3D56"/>
<path d="M380.757 32.7859C383.122 48.3186 397.682 59.0304 413.215 56.665C428.748 54.2996 439.46 39.7391 437.094 24.2064C434.729 8.67372 420.168 -2.03814 404.636 0.327278C389.103 2.6927 378.391 17.2532 380.757 32.7859Z" fill="#213546"/>
<path d="M274.472 187.715C282.308 185.904 289.595 188.479 290.747 193.467C291.899 198.454 286.48 203.963 278.641 205.774C275.519 206.54 272.26 206.548 269.135 205.796L235.835 213.051L233 199.876L265.917 191.867C268.396 189.82 271.33 188.396 274.472 187.715Z" fill="#FFB6B6"/>
<path d="M115.422 196.836C115.628 195.913 117.55 187.895 124.697 184.242C132.907 180.045 141.969 184.698 145.148 186.33C152.491 190.1 152.332 193.598 158.836 198.782C171.003 208.481 186.649 208.268 195.294 208.151C198.286 208.111 207.527 207.805 219.116 203.996C241.656 196.587 256.055 187.291 256.055 187.291L261.972 207.337C261.972 207.337 244.518 226.626 223.591 235.416C202.125 244.432 140.9 245.027 126.397 244.298C125.148 244.236 145.03 246.155 125.564 222.806C121.123 217.481 112.988 207.723 115.422 196.836Z" fill="#E2CECB"/>
</g>
<defs>
<clipPath id="clip0_7_209">
<rect width="524.926" height="493.293" fill="white"/>
</clipPath>
</defs>
</svg>
